# xmcd
#
# Track frame offsets:
#	150
#	17375
#	37643
#	56380
#	73061
#	91438
#	108807
#	119411
#	132264
#	149957
#	168113
#	189361
#	205548
#	225244
#	243578
#	260699
#	276901
#	298188
#
# Disc length: 4215 seconds
#
# Revision: 1
# Processed by: cddbd v1.5.2PL0 Copyright (c) Steve Scherf et al.
# Submitted via: audiograbber 1.83.01
#
DISCID=fc107512
DTITLE=Various Artist - RL61 WWW.TOPHITSUSA.COM
DYEAR=1900
DGENRE=
TTITLE0=ALEXIS Y FIDO - SOY IGUAL QUE TU
TTITLE1=PACHEMAN and GRISELITO f Randy - QUE LA LAMBAN
TTITLE2=CASA DE LEONES - SHORTY
TTITLE3=XTREME and ADRIENNE BAILON - NO ME DIGAS QUE NO
TTITLE4=PITBULL f Lil John - THE ANTHEM (Clean Edit)
TTITLE5=RAKIM and KEN-Y - TE VAS (Remix)
TTITLE6=PATRULLA 81 - TE QUIERO MUCHO
TTITLE7=LOS RIELEROS DEL NORTE - VEN Y DIME
TTITLE8=K-PAZ w FRAINCO DE VITA - UN BUEN PERDEDOR
TTITLE9=EL POTRO DE SINALOA - EL VASO DERRAMA
TTITLE10=LOS HERMANOS ROSARIO - ALO
TTITLE11=AVENTURA - EL PERDEDOR
TTITLE12=PUERTO RICAN POWER - ESA MUJER
TTITLE13=RAULIN RODRIGUEZ - CULPABLE
TTITLE14=BLACK GUAYABA - AYER
TTITLE15=EDNITA NAZARIO - NO TE MENTIA
TTITLE16=OLGA TANON - HOY QUIERO CONFESARME
TTITLE17=LOS HIJOS DEL SOL - CARINTO
EXTD=
EXTT0=
EXTT1=
EXTT2=
EXTT3=
EXTT4=
EXTT5=
EXTT6=
EXTT7=
EXTT8=
EXTT9=
EXTT10=
EXTT11=
EXTT12=
EXTT13=
EXTT14=
EXTT15=
EXTT16=
EXTT17=
PLAYORDER=
